<mxfile host="Electron" modified="2023-04-30T15:54:46.314Z" agent="Mozilla/5.0 (Windows NT 10.0; Win64; x64) AppleWebKit/537.36 (KHTML, like Gecko) draw.io/21.2.1 Chrome/112.0.5615.87 Electron/24.1.2 Safari/537.36" etag="c0SWiNtfjUAATu9ZUCbr" version="21.2.1" type="device">
  <diagram name="Page-1" id="jOTbS239regMLlkqWPYL">
    <mxGraphModel dx="1436" dy="2256" grid="0" gridSize="10" guides="1" tooltips="1" connect="1" arrows="1" fold="1" page="0" pageScale="1" pageWidth="850" pageHeight="1100" math="0" shadow="0">
      <root>
        <mxCell id="0" />
        <mxCell id="1" parent="0" />
        <mxCell id="x1LBng_5WOXiY_3KLzgl-1" value="&lt;font style=&quot;font-weight: normal; font-size: 20px;&quot; color=&quot;#000000&quot;&gt;Microcontroller&lt;/font&gt;" style="vsdxID=95;fillColor=#f8cecc;shape=stencil(nZCxDsIwDES/xitKk6V7KT/AF0TUEIuQVGmgwNeT9kCqOjB0s++efdKRaQZneyathpzilUfpsiOzJ60lOE6Sy0SmJdOcY+JLivfQYe9tIbWaFe5wU020VjadjvJmaPWu0jV0HN7iYwp8wlawXt8HCvsBqJewQH/mJvgPuhFcxZdhrgRlifdodOmvKywS6jftBw==);strokeColor=#b85450;spacingTop=-1;spacingBottom=-1;spacingLeft=-1;spacingRight=-1;points=[[0,0.75,0],[0,0.5,0],[0,0.25,0],[0.25,0,0],[0.5,0,0],[0.75,0,0],[1,0.25,0],[1,0.5,0],[1,0.75,0],[0.75,1,0],[0.5,1,0],[0.25,1,0]];labelBackgroundColor=none;rounded=1;html=1;whiteSpace=wrap;fontFamily=Calibri;fontSize=19;fontStyle=1;fontColor=#FFFFFF;" vertex="1" parent="1">
          <mxGeometry x="-65" y="-645" width="552" height="44" as="geometry" />
        </mxCell>
        <UserObject label="" BpmnName="MCAL" tags="Flowchart" id="x1LBng_5WOXiY_3KLzgl-2">
          <mxCell style="vsdxID=815;fillColor=none;gradientColor=none;strokeColor=none;spacingTop=-1;spacingBottom=-1;spacingLeft=-1;spacingRight=-1;points=[[0,0.75,0],[0,0.5,0],[0,0.25,0],[0.25,0,0],[0.5,0,0],[0.75,0,0],[1,0.25,0],[1,0.5,0],[1,0.75,0],[0.75,1,0],[0.5,1,0],[0.25,1,0]];labelBackgroundColor=none;rounded=1;html=1;whiteSpace=wrap;fontFamily=Calibri;fontSize=19;fontStyle=1;fontColor=#FFFFFF;" vertex="1" parent="1">
            <mxGeometry x="-65" y="-813" width="552" height="160" as="geometry" />
          </mxCell>
        </UserObject>
        <mxCell id="x1LBng_5WOXiY_3KLzgl-3" style="vsdxID=816;fillColor=#dae8fc;shape=stencil(nZCxDsIwDES/xitKk6V7KT/AF0TUEIuQVGmgwNeT9kCqOjB0s++efdKRaQZneyathpzilUfpsiOzJ60lOE6Sy0SmJdOcY+JLivfQYe9tIbWaFe5wU020VjadjvJmaPWu0jV0HN7iYwp8wlawXt8HCvsBqJewQH/mJvgPuhFcxZdhrgRlifdodOmvKywS6jftBw==);strokeColor=#6c8ebf;spacingTop=-1;spacingBottom=-1;spacingLeft=-1;spacingRight=-1;points=[[0,0.75,0],[0,0.5,0],[0,0.25,0],[0.25,0,0],[0.5,0,0],[0.75,0,0],[1,0.25,0],[1,0.5,0],[1,0.75,0],[0.75,1,0],[0.5,1,0],[0.25,1,0]];labelBackgroundColor=none;rounded=1;html=1;whiteSpace=wrap;fontFamily=Calibri;fontSize=19;fontStyle=1;fontColor=#FFFFFF;" vertex="1" parent="x1LBng_5WOXiY_3KLzgl-2">
          <mxGeometry width="552" height="160" as="geometry" />
        </mxCell>
        <mxCell id="x1LBng_5WOXiY_3KLzgl-4" value="&lt;div style=&quot;font-size: 19px;&quot;&gt;&lt;/div&gt;" style="verticalAlign=middle;align=center;overflow=width;vsdxID=820;fillColor=none;gradientColor=none;strokeColor=none;strokeWidth=2;spacingTop=-3;spacingBottom=-3;spacingLeft=-3;spacingRight=-3;points=[[0,0.75,0],[0,0.5,0],[0,0.25,0],[0.25,0,0],[0.5,0,0],[0.75,0,0],[1,0.25,0],[1,0.5,0],[1,0.75,0],[0.75,1,0],[0.5,1,0],[0.25,1,0]];labelBackgroundColor=none;rounded=0;html=1;whiteSpace=wrap;fontFamily=Calibri;fontSize=19;fontStyle=1;fontColor=#FFFFFF;" vertex="1" parent="x1LBng_5WOXiY_3KLzgl-2">
          <mxGeometry x="277" y="140" width="16" height="16" as="geometry" />
        </mxCell>
        <mxCell id="x1LBng_5WOXiY_3KLzgl-5" value="&lt;div style=&quot;font-size: 19px;&quot;&gt;&lt;/div&gt;" style="verticalAlign=middle;align=center;overflow=width;vsdxID=828;fillColor=none;gradientColor=none;strokeColor=none;spacingTop=-1;spacingBottom=-1;spacingLeft=-1;spacingRight=-1;points=[[0,0.75,0],[0,0.5,0],[0,0.25,0],[0.25,0,0],[0.5,0,0],[0.75,0,0],[1,0.25,0],[1,0.5,0],[1,0.75,0],[0.75,1,0],[0.5,1,0],[0.25,1,0]];labelBackgroundColor=none;rounded=0;html=1;whiteSpace=wrap;fontFamily=Calibri;fontSize=19;fontStyle=1;fontColor=#FFFFFF;" vertex="1" parent="x1LBng_5WOXiY_3KLzgl-2">
          <mxGeometry x="5" y="5" width="14" height="14" as="geometry" />
        </mxCell>
        <mxCell id="x1LBng_5WOXiY_3KLzgl-6" value="&lt;div style=&quot;font-size: 19px;&quot;&gt;&lt;font style=&quot;font-size: 19px; direction: ltr; letter-spacing: 0px; line-height: 120%; opacity: 1;&quot;&gt;MCAL&lt;br style=&quot;font-size: 19px;&quot;&gt;&lt;/font&gt;&lt;/div&gt;" style="text;vsdxID=815;fillColor=none;gradientColor=none;strokeColor=none;spacingTop=-1;spacingBottom=-1;spacingLeft=-1;spacingRight=-1;points=[[0,0.75,0],[0,0.5,0],[0,0.25,0],[0.25,0,0],[0.5,0,0],[0.75,0,0],[1,0.25,0],[1,0.5,0],[1,0.75,0],[0.75,1,0],[0.5,1,0],[0.25,1,0]];labelBackgroundColor=none;rounded=1;html=1;whiteSpace=wrap;verticalAlign=top;align=center;overflow=width;;html=1;fontFamily=Calibri;fontSize=19;fontStyle=1;fontColor=#FFFFFF;" vertex="1" parent="x1LBng_5WOXiY_3KLzgl-2">
          <mxGeometry x="6.35" y="8.13" width="552.45" as="geometry" />
        </mxCell>
        <mxCell id="x1LBng_5WOXiY_3KLzgl-7" value="&lt;font style=&quot;font-size: 19px;&quot;&gt;MCAL&lt;/font&gt;" style="text;strokeColor=none;align=center;fillColor=none;html=1;verticalAlign=middle;whiteSpace=wrap;rounded=0;fontSize=16;fontColor=#1ba1e2;" vertex="1" parent="x1LBng_5WOXiY_3KLzgl-2">
          <mxGeometry x="252.57" y="124" width="60" height="30" as="geometry" />
        </mxCell>
        <UserObject label="&lt;div style=&quot;font-size: 1px&quot;&gt;&lt;font style=&quot;font-size:25.4px;font-family:Calibri;color:#ffffff;direction:ltr;letter-spacing:0px;line-height:120%;opacity:1&quot;&gt;AC CONTROL SYSTEM DESIGN&lt;br/&gt;Layered Architecture&lt;br/&gt;&lt;/font&gt;&lt;/div&gt;" tags="Background" id="x1LBng_5WOXiY_3KLzgl-8">
          <mxCell style="verticalAlign=middle;align=center;overflow=width;vsdxID=47;fillColor=#4271c6;gradientColor=none;shape=stencil(nZBLDoAgDERP0z3SIyjew0SURgSD+Lu9kMZoXLhwN9O+tukAlrNpJg1SzDH4QW/URgNYgZTkjA4UkwJUgGXng+6DX1zLfmoymdXo17xh5zmRJ6Q42BWCfc2oJfdAr+Yv+AP9Cb7OJ3H/2JG1HNGz/84klThPVCc=);strokeColor=#ffffff;points=[];labelBackgroundColor=none;rounded=0;html=1;whiteSpace=wrap;" vertex="1" parent="1">
            <mxGeometry x="208" y="-1334" width="355" height="152" as="geometry" />
          </mxCell>
        </UserObject>
        <UserObject label="" BpmnName="Application" tags="Flowchart" id="x1LBng_5WOXiY_3KLzgl-9">
          <mxCell style="vsdxID=71;fillColor=none;gradientColor=none;strokeColor=none;spacingTop=-1;spacingBottom=-1;spacingLeft=-1;spacingRight=-1;points=[[0,0.75,0],[0,0.5,0],[0,0.25,0],[0.25,0,0],[0.5,0,0],[0.75,0,0],[1,0.25,0],[1,0.5,0],[1,0.75,0],[0.75,1,0],[0.5,1,0],[0.25,1,0]];labelBackgroundColor=none;rounded=1;html=1;whiteSpace=wrap;fontFamily=Calibri;fontSize=19;fontStyle=1;fontColor=#FFFFFF;" vertex="1" parent="1">
            <mxGeometry x="-65" y="-1141" width="552" height="152" as="geometry" />
          </mxCell>
        </UserObject>
        <mxCell id="x1LBng_5WOXiY_3KLzgl-10" style="vsdxID=72;fillColor=#d5e8d4;shape=stencil(nZCxDsIwDES/xitKk6V7KT/AF0TUEIuQVGmgwNeT9kCqOjB0s++efdKRaQZneyathpzilUfpsiOzJ60lOE6Sy0SmJdOcY+JLivfQYe9tIbWaFe5wU020VjadjvJmaPWu0jV0HN7iYwp8wlawXt8HCvsBqJewQH/mJvgPuhFcxZdhrgRlifdodOmvKywS6jftBw==);strokeColor=#82b366;spacingTop=-1;spacingBottom=-1;spacingLeft=-1;spacingRight=-1;points=[[0,0.75,0],[0,0.5,0],[0,0.25,0],[0.25,0,0],[0.5,0,0],[0.75,0,0],[1,0.25,0],[1,0.5,0],[1,0.75,0],[0.75,1,0],[0.5,1,0],[0.25,1,0]];labelBackgroundColor=none;rounded=1;html=1;whiteSpace=wrap;fontFamily=Calibri;fontSize=19;fontStyle=1;fontColor=#FFFFFF;" vertex="1" parent="x1LBng_5WOXiY_3KLzgl-9">
          <mxGeometry width="552" height="152" as="geometry" />
        </mxCell>
        <mxCell id="x1LBng_5WOXiY_3KLzgl-11" value="&lt;div style=&quot;font-size: 19px;&quot;&gt;&lt;/div&gt;" style="verticalAlign=middle;align=center;overflow=width;vsdxID=76;fillColor=none;gradientColor=none;strokeColor=none;strokeWidth=2;spacingTop=-3;spacingBottom=-3;spacingLeft=-3;spacingRight=-3;points=[[0,0.75,0],[0,0.5,0],[0,0.25,0],[0.25,0,0],[0.5,0,0],[0.75,0,0],[1,0.25,0],[1,0.5,0],[1,0.75,0],[0.75,1,0],[0.5,1,0],[0.25,1,0]];labelBackgroundColor=none;rounded=0;html=1;whiteSpace=wrap;fontFamily=Calibri;fontSize=19;fontStyle=1;fontColor=#FFFFFF;" vertex="1" parent="x1LBng_5WOXiY_3KLzgl-9">
          <mxGeometry x="277" y="132" width="16" height="16" as="geometry" />
        </mxCell>
        <mxCell id="x1LBng_5WOXiY_3KLzgl-12" value="&lt;div style=&quot;font-size: 19px;&quot;&gt;&lt;/div&gt;" style="verticalAlign=middle;align=center;overflow=width;vsdxID=84;fillColor=none;gradientColor=none;strokeColor=none;spacingTop=-1;spacingBottom=-1;spacingLeft=-1;spacingRight=-1;points=[[0,0.75,0],[0,0.5,0],[0,0.25,0],[0.25,0,0],[0.5,0,0],[0.75,0,0],[1,0.25,0],[1,0.5,0],[1,0.75,0],[0.75,1,0],[0.5,1,0],[0.25,1,0]];labelBackgroundColor=none;rounded=0;html=1;whiteSpace=wrap;fontFamily=Calibri;fontSize=19;fontStyle=1;fontColor=#FFFFFF;" vertex="1" parent="x1LBng_5WOXiY_3KLzgl-9">
          <mxGeometry x="5" y="5" width="14" height="14" as="geometry" />
        </mxCell>
        <mxCell id="x1LBng_5WOXiY_3KLzgl-13" value="&lt;div style=&quot;font-size: 19px;&quot;&gt;&lt;font style=&quot;font-size: 19px; direction: ltr; letter-spacing: 0px; line-height: 120%; opacity: 1;&quot;&gt;Application&lt;br style=&quot;font-size: 19px;&quot;&gt;&lt;/font&gt;&lt;/div&gt;" style="text;vsdxID=71;fillColor=none;gradientColor=none;strokeColor=none;spacingTop=-1;spacingBottom=-1;spacingLeft=-1;spacingRight=-1;points=[[0,0.75,0],[0,0.5,0],[0,0.25,0],[0.25,0,0],[0.5,0,0],[0.75,0,0],[1,0.25,0],[1,0.5,0],[1,0.75,0],[0.75,1,0],[0.5,1,0],[0.25,1,0]];labelBackgroundColor=none;rounded=1;html=1;whiteSpace=wrap;verticalAlign=top;align=center;overflow=width;;html=1;fontFamily=Calibri;fontSize=19;fontStyle=1;fontColor=#FFFFFF;" vertex="1" parent="x1LBng_5WOXiY_3KLzgl-9">
          <mxGeometry y="-0.4" width="552.45" as="geometry" />
        </mxCell>
        <mxCell id="x1LBng_5WOXiY_3KLzgl-14" value="&lt;font color=&quot;#72ac41&quot; style=&quot;font-size: 20px; font-weight: normal;&quot;&gt;Application&lt;/font&gt;" style="text;strokeColor=none;fillColor=none;html=1;align=center;verticalAlign=middle;whiteSpace=wrap;rounded=0;fontSize=19;fontColor=#FFFFFF;fontFamily=Calibri;fontStyle=1" vertex="1" parent="x1LBng_5WOXiY_3KLzgl-9">
          <mxGeometry x="225.5" y="5" width="101" height="30" as="geometry" />
        </mxCell>
        <UserObject label="" BpmnName="ECUAL" tags="Flowchart" id="x1LBng_5WOXiY_3KLzgl-15">
          <mxCell style="vsdxID=140;fillColor=none;gradientColor=none;strokeColor=none;spacingTop=-1;spacingBottom=-1;spacingLeft=-1;spacingRight=-1;points=[[0,0.75,0],[0,0.5,0],[0,0.25,0],[0.25,0,0],[0.5,0,0],[0.75,0,0],[1,0.25,0],[1,0.5,0],[1,0.75,0],[0.75,1,0],[0.5,1,0],[0.25,1,0]];labelBackgroundColor=none;rounded=1;html=1;whiteSpace=wrap;fontFamily=Calibri;fontSize=19;fontStyle=1;fontColor=#FFFFFF;" vertex="1" parent="1">
            <mxGeometry x="-65" y="-980" width="552" height="160" as="geometry" />
          </mxCell>
        </UserObject>
        <mxCell id="x1LBng_5WOXiY_3KLzgl-16" style="vsdxID=141;fillColor=#ffe6cc;shape=stencil(nZCxDsIwDES/xitKk6V7KT/AF0TUEIuQVGmgwNeT9kCqOjB0s++efdKRaQZneyathpzilUfpsiOzJ60lOE6Sy0SmJdOcY+JLivfQYe9tIbWaFe5wU020VjadjvJmaPWu0jV0HN7iYwp8wlawXt8HCvsBqJewQH/mJvgPuhFcxZdhrgRlifdodOmvKywS6jftBw==);strokeColor=#d79b00;spacingTop=-1;spacingBottom=-1;spacingLeft=-1;spacingRight=-1;points=[[0,0.75,0],[0,0.5,0],[0,0.25,0],[0.25,0,0],[0.5,0,0],[0.75,0,0],[1,0.25,0],[1,0.5,0],[1,0.75,0],[0.75,1,0],[0.5,1,0],[0.25,1,0]];labelBackgroundColor=none;rounded=1;html=1;whiteSpace=wrap;fontFamily=Calibri;fontSize=19;fontStyle=1;fontColor=#FFFFFF;" vertex="1" parent="x1LBng_5WOXiY_3KLzgl-15">
          <mxGeometry width="552" height="160" as="geometry" />
        </mxCell>
        <mxCell id="x1LBng_5WOXiY_3KLzgl-17" value="&lt;div style=&quot;font-size: 19px;&quot;&gt;&lt;/div&gt;" style="verticalAlign=middle;align=center;overflow=width;vsdxID=145;fillColor=none;gradientColor=none;strokeColor=none;strokeWidth=2;spacingTop=-3;spacingBottom=-3;spacingLeft=-3;spacingRight=-3;points=[[0,0.75,0],[0,0.5,0],[0,0.25,0],[0.25,0,0],[0.5,0,0],[0.75,0,0],[1,0.25,0],[1,0.5,0],[1,0.75,0],[0.75,1,0],[0.5,1,0],[0.25,1,0]];labelBackgroundColor=none;rounded=0;html=1;whiteSpace=wrap;fontFamily=Calibri;fontSize=19;fontStyle=1;fontColor=#FFFFFF;" vertex="1" parent="x1LBng_5WOXiY_3KLzgl-15">
          <mxGeometry x="277" y="140" width="16" height="16" as="geometry" />
        </mxCell>
        <mxCell id="x1LBng_5WOXiY_3KLzgl-18" value="&lt;div style=&quot;font-size: 19px;&quot;&gt;&lt;/div&gt;" style="verticalAlign=middle;align=center;overflow=width;vsdxID=153;fillColor=none;gradientColor=none;strokeColor=none;spacingTop=-1;spacingBottom=-1;spacingLeft=-1;spacingRight=-1;points=[[0,0.75,0],[0,0.5,0],[0,0.25,0],[0.25,0,0],[0.5,0,0],[0.75,0,0],[1,0.25,0],[1,0.5,0],[1,0.75,0],[0.75,1,0],[0.5,1,0],[0.25,1,0]];labelBackgroundColor=none;rounded=0;html=1;whiteSpace=wrap;fontFamily=Calibri;fontSize=19;fontStyle=1;fontColor=#FFFFFF;" vertex="1" parent="x1LBng_5WOXiY_3KLzgl-15">
          <mxGeometry x="5" y="5" width="14" height="14" as="geometry" />
        </mxCell>
        <mxCell id="x1LBng_5WOXiY_3KLzgl-19" value="&lt;div style=&quot;font-size: 1px&quot;&gt;&lt;font style=&quot;font-size:19.76px;font-family:Calibri;color:#615884;direction:ltr;letter-spacing:0px;line-height:120%;opacity:1&quot;&gt;ECUAL&lt;br/&gt;&lt;/font&gt;&lt;/div&gt;" style="text;vsdxID=140;fillColor=none;gradientColor=none;strokeColor=none;spacingTop=-1;spacingBottom=-1;spacingLeft=-1;spacingRight=-1;points=[[0,0.75,0],[0,0.5,0],[0,0.25,0],[0.25,0,0],[0.5,0,0],[0.75,0,0],[1,0.25,0],[1,0.5,0],[1,0.75,0],[0.75,1,0],[0.5,1,0],[0.25,1,0]];labelBackgroundColor=none;rounded=1;html=1;whiteSpace=wrap;verticalAlign=top;align=center;overflow=width;;html=1;" vertex="1" parent="x1LBng_5WOXiY_3KLzgl-15">
          <mxGeometry x="142.88" y="7.07" width="552.45" as="geometry" />
        </mxCell>
        <mxCell id="x1LBng_5WOXiY_3KLzgl-20" value="&lt;font color=&quot;#f0a30a&quot; style=&quot;font-size: 19px;&quot;&gt;HAL&lt;/font&gt;" style="text;strokeColor=none;align=center;fillColor=none;html=1;verticalAlign=middle;whiteSpace=wrap;rounded=0;fontSize=16;" vertex="1" parent="x1LBng_5WOXiY_3KLzgl-15">
          <mxGeometry x="380" y="11" width="89" height="30" as="geometry" />
        </mxCell>
        <UserObject label="" BpmnName="APP" tags="Flowchart" id="x1LBng_5WOXiY_3KLzgl-21">
          <mxCell style="vsdxID=163;fillColor=none;gradientColor=none;strokeColor=none;spacingTop=-1;spacingBottom=-1;spacingLeft=-1;spacingRight=-1;points=[[0.14,1,0]];labelBackgroundColor=none;rounded=1;html=1;whiteSpace=wrap;fontFamily=Calibri;fontSize=19;fontStyle=1;fontColor=#FFFFFF;" vertex="1" parent="1">
            <mxGeometry x="-20" y="-1099" width="462" height="76" as="geometry" />
          </mxCell>
        </UserObject>
        <mxCell id="x1LBng_5WOXiY_3KLzgl-22" value="&lt;font color=&quot;#000000&quot;&gt;APP&lt;/font&gt;" style="vsdxID=164;fillColor=#ffffff;gradientColor=none;shape=stencil(nZCxDsIwDES/xitKk6V7KT/AF0TUEIuQVGmgwNeT9kCqOjB0s++efdKRaQZneyathpzilUfpsiOzJ60lOE6Sy0SmJdOcY+JLivfQYe9tIbWaFe5wU020VjadjvJmaPWu0jV0HN7iYwp8wlawXt8HCvsBqJewQH/mJvgPuhFcxZdhrgRlifdodOmvKywS6jftBw==);strokeColor=#849e33;spacingTop=-1;spacingBottom=-1;spacingLeft=-1;spacingRight=-1;points=[[0,0.75,0],[0,0.5,0],[0,0.25,0],[0.25,0,0],[0.5,0,0],[0.75,0,0],[1,0.25,0],[1,0.5,0],[1,0.75,0],[0.75,1,0],[0.5,1,0],[0.25,1,0]];labelBackgroundColor=none;rounded=1;html=1;whiteSpace=wrap;fontFamily=Calibri;fontSize=19;fontStyle=1;fontColor=#FFFFFF;" vertex="1" parent="x1LBng_5WOXiY_3KLzgl-21">
          <mxGeometry width="462" height="76" as="geometry" />
        </mxCell>
        <mxCell id="x1LBng_5WOXiY_3KLzgl-23" value="&lt;div style=&quot;font-size: 19px;&quot;&gt;&lt;/div&gt;" style="verticalAlign=middle;align=center;overflow=width;vsdxID=168;fillColor=none;gradientColor=none;strokeColor=none;strokeWidth=2;spacingTop=-3;spacingBottom=-3;spacingLeft=-3;spacingRight=-3;points=[[0,0.75,0],[0,0.5,0],[0,0.25,0],[0.25,0,0],[0.5,0,0],[0.75,0,0],[1,0.25,0],[1,0.5,0],[1,0.75,0],[0.75,1,0],[0.5,1,0],[0.25,1,0]];labelBackgroundColor=none;rounded=0;html=1;whiteSpace=wrap;fontFamily=Calibri;fontSize=19;fontStyle=1;fontColor=#FFFFFF;" vertex="1" parent="x1LBng_5WOXiY_3KLzgl-21">
          <mxGeometry x="232" y="56" width="16" height="16" as="geometry" />
        </mxCell>
        <mxCell id="x1LBng_5WOXiY_3KLzgl-24" value="&lt;div style=&quot;font-size: 19px;&quot;&gt;&lt;/div&gt;" style="verticalAlign=middle;align=center;overflow=width;vsdxID=176;fillColor=none;gradientColor=none;strokeColor=none;spacingTop=-1;spacingBottom=-1;spacingLeft=-1;spacingRight=-1;points=[[0,0.75,0],[0,0.5,0],[0,0.25,0],[0.25,0,0],[0.5,0,0],[0.75,0,0],[1,0.25,0],[1,0.5,0],[1,0.75,0],[0.75,1,0],[0.5,1,0],[0.25,1,0]];labelBackgroundColor=none;rounded=0;html=1;whiteSpace=wrap;fontFamily=Calibri;fontSize=19;fontStyle=1;fontColor=#FFFFFF;" vertex="1" parent="x1LBng_5WOXiY_3KLzgl-21">
          <mxGeometry x="5" y="5" width="14" height="14" as="geometry" />
        </mxCell>
        <mxCell id="x1LBng_5WOXiY_3KLzgl-25" value="&lt;div style=&quot;font-size: 19px;&quot;&gt;&lt;font style=&quot;font-size: 19px; direction: ltr; letter-spacing: 0px; line-height: 120%; opacity: 1;&quot;&gt;&lt;span style=&quot;font-size: 19px;&quot;&gt;APP&lt;br style=&quot;font-size: 19px;&quot;&gt;&lt;/span&gt;&lt;/font&gt;&lt;/div&gt;" style="text;vsdxID=163;fillColor=none;gradientColor=none;strokeColor=none;spacingTop=-1;spacingBottom=-1;spacingLeft=-1;spacingRight=-1;points=[[0.14,1,0]];labelBackgroundColor=none;rounded=1;html=1;whiteSpace=wrap;verticalAlign=middle;align=center;overflow=width;;html=1;fontFamily=Calibri;fontSize=19;fontStyle=1;fontColor=#FFFFFF;" vertex="1" parent="x1LBng_5WOXiY_3KLzgl-21">
          <mxGeometry y="37.9" width="462.52" as="geometry" />
        </mxCell>
        <UserObject label="" BpmnName="LIB" tags="Flowchart" id="x1LBng_5WOXiY_3KLzgl-26">
          <mxCell style="vsdxID=209;fillColor=none;gradientColor=none;strokeColor=none;spacingTop=-1;spacingBottom=-1;spacingLeft=-1;spacingRight=-1;points=[[0,0.75,0],[0,0.5,0],[0,0.25,0],[0.25,0,0],[0.5,0,0],[0.75,0,0],[1,0.25,0],[1,0.5,0],[1,0.75,0],[0.75,1,0],[0.5,1,0],[0.25,1,0]];labelBackgroundColor=none;rounded=1;html=1;whiteSpace=wrap;" vertex="1" parent="1">
            <mxGeometry x="-179" y="-1141" width="101" height="539" as="geometry" />
          </mxCell>
        </UserObject>
        <mxCell id="x1LBng_5WOXiY_3KLzgl-27" style="vsdxID=210;fillColor=#a5a5a5;gradientColor=none;shape=stencil(nZCxDsIwDES/xitKk6V7KT/AF0TUEIuQVGmgwNeT9kCqOjB0s++efdKRaQZneyathpzilUfpsiOzJ60lOE6Sy0SmJdOcY+JLivfQYe9tIbWaFe5wU020VjadjvJmaPWu0jV0HN7iYwp8wlawXt8HCvsBqJewQH/mJvgPuhFcxZdhrgRlifdodOmvKywS6jftBw==);strokeColor=#a5a5a5;spacingTop=-1;spacingBottom=-1;spacingLeft=-1;spacingRight=-1;points=[[0,0.75,0],[0,0.5,0],[0,0.25,0],[0.25,0,0],[0.5,0,0],[0.75,0,0],[1,0.25,0],[1,0.5,0],[1,0.75,0],[0.75,1,0],[0.5,1,0],[0.25,1,0]];labelBackgroundColor=none;rounded=1;html=1;whiteSpace=wrap;" vertex="1" parent="x1LBng_5WOXiY_3KLzgl-26">
          <mxGeometry width="101" height="539" as="geometry" />
        </mxCell>
        <mxCell id="x1LBng_5WOXiY_3KLzgl-28" value="&lt;div style=&quot;font-size: 1px&quot;&gt;&lt;/div&gt;" style="verticalAlign=middle;align=center;overflow=width;vsdxID=214;fillColor=none;gradientColor=none;strokeColor=none;strokeWidth=2;spacingTop=-3;spacingBottom=-3;spacingLeft=-3;spacingRight=-3;points=[[0,0.75,0],[0,0.5,0],[0,0.25,0],[0.25,0,0],[0.5,0,0],[0.75,0,0],[1,0.25,0],[1,0.5,0],[1,0.75,0],[0.75,1,0],[0.5,1,0],[0.25,1,0]];labelBackgroundColor=none;rounded=0;html=1;whiteSpace=wrap;" vertex="1" parent="x1LBng_5WOXiY_3KLzgl-26">
          <mxGeometry x="51" y="519" width="16" height="16" as="geometry" />
        </mxCell>
        <mxCell id="x1LBng_5WOXiY_3KLzgl-29" value="&lt;div style=&quot;font-size: 1px&quot;&gt;&lt;/div&gt;" style="verticalAlign=middle;align=center;overflow=width;vsdxID=222;fillColor=none;gradientColor=none;strokeColor=none;spacingTop=-1;spacingBottom=-1;spacingLeft=-1;spacingRight=-1;points=[[0,0.75,0],[0,0.5,0],[0,0.25,0],[0.25,0,0],[0.5,0,0],[0.75,0,0],[1,0.25,0],[1,0.5,0],[1,0.75,0],[0.75,1,0],[0.5,1,0],[0.25,1,0]];labelBackgroundColor=none;rounded=0;html=1;whiteSpace=wrap;" vertex="1" parent="x1LBng_5WOXiY_3KLzgl-26">
          <mxGeometry x="5" y="5" width="14" height="14" as="geometry" />
        </mxCell>
        <mxCell id="x1LBng_5WOXiY_3KLzgl-30" value="&lt;div style=&quot;font-size: 1px&quot;&gt;&lt;font style=&quot;font-size:19.76px;font-family:Calibri;color:#ffffff;direction:ltr;letter-spacing:0px;line-height:120%;opacity:1&quot;&gt;LIB&lt;br/&gt;&lt;/font&gt;&lt;/div&gt;" style="text;vsdxID=209;fillColor=none;gradientColor=none;strokeColor=none;spacingTop=-1;spacingBottom=-1;spacingLeft=-1;spacingRight=-1;points=[[0,0.75,0],[0,0.5,0],[0,0.25,0],[0.25,0,0],[0.5,0,0],[0.75,0,0],[1,0.25,0],[1,0.5,0],[1,0.75,0],[0.75,1,0],[0.5,1,0],[0.25,1,0]];labelBackgroundColor=none;rounded=1;html=1;whiteSpace=wrap;verticalAlign=middle;align=center;overflow=width;rotation=270.05;;html=1;" vertex="1" parent="x1LBng_5WOXiY_3KLzgl-26">
          <mxGeometry x="-38.1" y="265.95" width="101.6" as="geometry" />
        </mxCell>
        <UserObject label="" tags="Background" id="x1LBng_5WOXiY_3KLzgl-31">
          <mxCell style="vsdxID=259;fillColor=none;gradientColor=none;strokeColor=none;points=[];labelBackgroundColor=none;rounded=0;html=1;whiteSpace=wrap;" vertex="1" parent="1">
            <mxGeometry x="-143" y="-1115" width="50" height="220" as="geometry" />
          </mxCell>
        </UserObject>
        <mxCell id="x1LBng_5WOXiY_3KLzgl-32" style="vsdxID=232;fillColor=none;gradientColor=none;strokeColor=none;spacingTop=-1;spacingBottom=-1;spacingLeft=-1;spacingRight=-1;points=[[0,0.75,0],[0,0.5,0],[0,0.25,0],[0.25,0,0],[0.5,0,0],[0.75,0,0],[1,0.25,0],[1,0.5,0],[1,0.75,0],[0.75,1,0],[0.5,1,0],[0.25,1,0]];labelBackgroundColor=none;rounded=1;html=1;whiteSpace=wrap;" vertex="1" parent="x1LBng_5WOXiY_3KLzgl-31">
          <mxGeometry width="50" height="220" as="geometry" />
        </mxCell>
        <mxCell id="x1LBng_5WOXiY_3KLzgl-33" style="vsdxID=233;fillColor=#ffffff;gradientColor=none;shape=stencil(nZCxDsIwDES/xitKk6V7KT/AF0TUEIuQVGmgwNeT9kCqOjB0s++efdKRaQZneyathpzilUfpsiOzJ60lOE6Sy0SmJdOcY+JLivfQYe9tIbWaFe5wU020VjadjvJmaPWu0jV0HN7iYwp8wlawXt8HCvsBqJewQH/mJvgPuhFcxZdhrgRlifdodOmvKywS6jftBw==);strokeColor=#a5a5a5;spacingTop=-1;spacingBottom=-1;spacingLeft=-1;spacingRight=-1;points=[[0,0.75,0],[0,0.5,0],[0,0.25,0],[0.25,0,0],[0.5,0,0],[0.75,0,0],[1,0.25,0],[1,0.5,0],[1,0.75,0],[0.75,1,0],[0.5,1,0],[0.25,1,0]];labelBackgroundColor=none;rounded=1;html=1;whiteSpace=wrap;" vertex="1" parent="x1LBng_5WOXiY_3KLzgl-32">
          <mxGeometry width="50" height="220" as="geometry" />
        </mxCell>
        <mxCell id="x1LBng_5WOXiY_3KLzgl-34" value="&lt;div style=&quot;font-size: 1px&quot;&gt;&lt;/div&gt;" style="verticalAlign=middle;align=center;overflow=width;vsdxID=237;fillColor=none;gradientColor=none;strokeColor=none;strokeWidth=2;spacingTop=-3;spacingBottom=-3;spacingLeft=-3;spacingRight=-3;points=[[0,0.75,0],[0,0.5,0],[0,0.25,0],[0.25,0,0],[0.5,0,0],[0.75,0,0],[1,0.25,0],[1,0.5,0],[1,0.75,0],[0.75,1,0],[0.5,1,0],[0.25,1,0]];labelBackgroundColor=none;rounded=0;html=1;whiteSpace=wrap;" vertex="1" parent="x1LBng_5WOXiY_3KLzgl-32">
          <mxGeometry x="26" y="200" width="16" height="16" as="geometry" />
        </mxCell>
        <mxCell id="x1LBng_5WOXiY_3KLzgl-35" value="&lt;div style=&quot;font-size: 1px&quot;&gt;&lt;/div&gt;" style="verticalAlign=middle;align=center;overflow=width;vsdxID=245;fillColor=none;gradientColor=none;strokeColor=none;spacingTop=-1;spacingBottom=-1;spacingLeft=-1;spacingRight=-1;points=[[0,0.75,0],[0,0.5,0],[0,0.25,0],[0.25,0,0],[0.5,0,0],[0.75,0,0],[1,0.25,0],[1,0.5,0],[1,0.75,0],[0.75,1,0],[0.5,1,0],[0.25,1,0]];labelBackgroundColor=none;rounded=0;html=1;whiteSpace=wrap;" vertex="1" parent="x1LBng_5WOXiY_3KLzgl-32">
          <mxGeometry x="5" y="5" width="14" height="14" as="geometry" />
        </mxCell>
        <mxCell id="x1LBng_5WOXiY_3KLzgl-36" value="&lt;div style=&quot;font-size: 1px&quot;&gt;&lt;/div&gt;" style="text;vsdxID=232;fillColor=none;gradientColor=none;strokeColor=none;spacingTop=-1;spacingBottom=-1;spacingLeft=-1;spacingRight=-1;points=[[0,0.75,0],[0,0.5,0],[0,0.25,0],[0.25,0,0],[0.5,0,0],[0.75,0,0],[1,0.25,0],[1,0.5,0],[1,0.75,0],[0.75,1,0],[0.5,1,0],[0.25,1,0]];labelBackgroundColor=none;rounded=1;html=1;whiteSpace=wrap;verticalAlign=top;align=center;overflow=width;rotation=270.05;;html=1;" vertex="1" parent="x1LBng_5WOXiY_3KLzgl-32">
          <mxGeometry x="-14.29" y="117.61" width="50.8" as="geometry" />
        </mxCell>
        <mxCell id="x1LBng_5WOXiY_3KLzgl-37" value="&lt;div style=&quot;font-size: 1px&quot;&gt;&lt;font style=&quot;font-size:16.93px;font-family:Calibri;color:#5b9bd5;direction:ltr;letter-spacing:0px;line-height:120%;opacity:1&quot;&gt;&lt;b&gt;Bit Math&lt;br/&gt;&lt;/b&gt;&lt;/font&gt;&lt;/div&gt;" style="verticalAlign=middle;align=center;overflow=width;vsdxID=257;rotation=270;fillColor=none;gradientColor=none;shape=stencil(nZBLDoAgDERP0z3SIyjew0SURgSD+Lu9kMZoXLhwN9O+tukAlrNpJg1SzDH4QW/URgNYgZTkjA4UkwJUgGXng+6DX1zLfmoymdXo17xh5zmRJ6Q42BWCfc2oJfdAr+Yv+AP9Cb7OJ3H/2JG1HNGz/84klThPVCc=);strokeColor=none;points=[];labelBackgroundColor=none;rounded=0;html=1;whiteSpace=wrap;" vertex="1" parent="x1LBng_5WOXiY_3KLzgl-31">
          <mxGeometry x="-81" y="92" width="211" height="35" as="geometry" />
        </mxCell>
        <UserObject label="" BpmnName="KEYPAD" tags="Flowchart" id="x1LBng_5WOXiY_3KLzgl-38">
          <mxCell style="vsdxID=333;fillColor=none;gradientColor=none;strokeColor=none;spacingTop=-1;spacingBottom=-1;spacingLeft=-1;spacingRight=-1;points=[[0,0.75,0],[0,0.5,0],[0,0.25,0],[0.25,0,0],[0.5,0,0],[0.75,0,0],[1,0.25,0],[1,0.5,0],[1,0.75,0],[0.75,1,0],[0.5,1,0],[0.25,1,0]];labelBackgroundColor=none;rounded=1;html=1;whiteSpace=wrap;fontFamily=Calibri;fontSize=19;fontStyle=1;fontColor=#FFFFFF;" vertex="1" parent="1">
            <mxGeometry x="372" y="-937" width="92" height="76" as="geometry" />
          </mxCell>
        </UserObject>
        <mxCell id="x1LBng_5WOXiY_3KLzgl-39" value="BUZZER" style="vsdxID=334;fillColor=#f0a30a;shape=stencil(nZCxDsIwDES/xitKk6V7KT/AF0TUEIuQVGmgwNeT9kCqOjB0s++efdKRaQZneyathpzilUfpsiOzJ60lOE6Sy0SmJdOcY+JLivfQYe9tIbWaFe5wU020VjadjvJmaPWu0jV0HN7iYwp8wlawXt8HCvsBqJewQH/mJvgPuhFcxZdhrgRlifdodOmvKywS6jftBw==);strokeColor=#BD7000;spacingTop=-1;spacingBottom=-1;spacingLeft=-1;spacingRight=-1;points=[[0,0.75,0],[0,0.5,0],[0,0.25,0],[0.25,0,0],[0.5,0,0],[0.75,0,0],[1,0.25,0],[1,0.5,0],[1,0.75,0],[0.75,1,0],[0.5,1,0],[0.25,1,0]];labelBackgroundColor=none;rounded=1;html=1;whiteSpace=wrap;fontColor=#FFFFFF;fontFamily=Calibri;fontSize=19;fontStyle=1" vertex="1" parent="x1LBng_5WOXiY_3KLzgl-38">
          <mxGeometry width="92" height="76" as="geometry" />
        </mxCell>
        <mxCell id="x1LBng_5WOXiY_3KLzgl-40" value="&lt;div style=&quot;font-size: 19px;&quot;&gt;&lt;/div&gt;" style="verticalAlign=middle;align=center;overflow=width;vsdxID=338;fillColor=none;gradientColor=none;strokeColor=none;strokeWidth=2;spacingTop=-3;spacingBottom=-3;spacingLeft=-3;spacingRight=-3;points=[[0,0.75,0],[0,0.5,0],[0,0.25,0],[0.25,0,0],[0.5,0,0],[0.75,0,0],[1,0.25,0],[1,0.5,0],[1,0.75,0],[0.75,1,0],[0.5,1,0],[0.25,1,0]];labelBackgroundColor=none;rounded=0;html=1;whiteSpace=wrap;fontFamily=Calibri;fontSize=19;fontStyle=1;fontColor=#FFFFFF;" vertex="1" parent="x1LBng_5WOXiY_3KLzgl-38">
          <mxGeometry x="47" y="56" width="16" height="16" as="geometry" />
        </mxCell>
        <mxCell id="x1LBng_5WOXiY_3KLzgl-41" value="&lt;div style=&quot;font-size: 19px;&quot;&gt;&lt;/div&gt;" style="verticalAlign=middle;align=center;overflow=width;vsdxID=346;fillColor=none;gradientColor=none;strokeColor=none;spacingTop=-1;spacingBottom=-1;spacingLeft=-1;spacingRight=-1;points=[[0,0.75,0],[0,0.5,0],[0,0.25,0],[0.25,0,0],[0.5,0,0],[0.75,0,0],[1,0.25,0],[1,0.5,0],[1,0.75,0],[0.75,1,0],[0.5,1,0],[0.25,1,0]];labelBackgroundColor=none;rounded=0;html=1;whiteSpace=wrap;fontFamily=Calibri;fontSize=19;fontStyle=1;fontColor=#FFFFFF;" vertex="1" parent="x1LBng_5WOXiY_3KLzgl-38">
          <mxGeometry x="5" y="5" width="14" height="14" as="geometry" />
        </mxCell>
        <mxCell id="x1LBng_5WOXiY_3KLzgl-42" value="&lt;div style=&quot;font-size: 19px;&quot;&gt;&lt;font style=&quot;font-size: 19px; direction: ltr; letter-spacing: 0px; line-height: 120%; opacity: 1;&quot;&gt;&lt;span style=&quot;font-size: 19px;&quot;&gt;KEYPAD&lt;br style=&quot;font-size: 19px;&quot;&gt;&lt;/span&gt;&lt;/font&gt;&lt;/div&gt;" style="text;vsdxID=333;fillColor=none;gradientColor=none;strokeColor=none;spacingTop=-1;spacingBottom=-1;spacingLeft=-1;spacingRight=-1;points=[[0,0.75,0],[0,0.5,0],[0,0.25,0],[0.25,0,0],[0.5,0,0],[0.75,0,0],[1,0.25,0],[1,0.5,0],[1,0.75,0],[0.75,1,0],[0.5,1,0],[0.25,1,0]];labelBackgroundColor=none;rounded=1;html=1;whiteSpace=wrap;verticalAlign=middle;align=center;overflow=width;;html=1;fontFamily=Calibri;fontSize=19;fontStyle=1;fontColor=#FFFFFF;" vertex="1" parent="x1LBng_5WOXiY_3KLzgl-38">
          <mxGeometry y="37.9" width="92.08" as="geometry" />
        </mxCell>
        <UserObject label="" BpmnName="DIO" tags="Flowchart" id="x1LBng_5WOXiY_3KLzgl-43">
          <mxCell style="vsdxID=356;fillColor=none;gradientColor=none;strokeColor=none;spacingTop=-1;spacingBottom=-1;spacingLeft=-1;spacingRight=-1;points=[[0,0.75,0],[0,0.5,0],[0,0.25,0],[0.25,0,0],[0.5,0,0],[0.75,0,0],[1,0.25,0],[1,0.5,0],[1,0.75,0],[0.75,1,0],[0.5,1,0],[0.25,1,0]];labelBackgroundColor=none;rounded=1;html=1;whiteSpace=wrap;fontFamily=Calibri;fontSize=19;fontStyle=1;fontColor=#FFFFFF;" vertex="1" parent="1">
            <mxGeometry x="230" y="-770" width="228" height="76" as="geometry" />
          </mxCell>
        </UserObject>
        <mxCell id="x1LBng_5WOXiY_3KLzgl-44" value="DIO" style="vsdxID=357;fillColor=#1ba1e2;shape=stencil(nZCxDsIwDES/xitKk6V7KT/AF0TUEIuQVGmgwNeT9kCqOjB0s++efdKRaQZneyathpzilUfpsiOzJ60lOE6Sy0SmJdOcY+JLivfQYe9tIbWaFe5wU020VjadjvJmaPWu0jV0HN7iYwp8wlawXt8HCvsBqJewQH/mJvgPuhFcxZdhrgRlifdodOmvKywS6jftBw==);strokeColor=#006EAF;spacingTop=-1;spacingBottom=-1;spacingLeft=-1;spacingRight=-1;points=[[0,0.75,0],[0,0.5,0],[0,0.25,0],[0.25,0,0],[0.5,0,0],[0.75,0,0],[1,0.25,0],[1,0.5,0],[1,0.75,0],[0.75,1,0],[0.5,1,0],[0.25,1,0]];labelBackgroundColor=none;rounded=1;html=1;whiteSpace=wrap;fontColor=#FFFFFF;fontFamily=Calibri;fontSize=19;fontStyle=1" vertex="1" parent="x1LBng_5WOXiY_3KLzgl-43">
          <mxGeometry width="228" height="76" as="geometry" />
        </mxCell>
        <mxCell id="x1LBng_5WOXiY_3KLzgl-45" value="&lt;div style=&quot;font-size: 19px;&quot;&gt;&lt;/div&gt;" style="verticalAlign=middle;align=center;overflow=width;vsdxID=361;fillColor=none;gradientColor=none;strokeColor=none;strokeWidth=2;spacingTop=-3;spacingBottom=-3;spacingLeft=-3;spacingRight=-3;points=[[0,0.75,0],[0,0.5,0],[0,0.25,0],[0.25,0,0],[0.5,0,0],[0.75,0,0],[1,0.25,0],[1,0.5,0],[1,0.75,0],[0.75,1,0],[0.5,1,0],[0.25,1,0]];labelBackgroundColor=none;rounded=0;html=1;whiteSpace=wrap;fontFamily=Calibri;fontSize=19;fontStyle=1;fontColor=#FFFFFF;" vertex="1" parent="x1LBng_5WOXiY_3KLzgl-43">
          <mxGeometry x="115" y="56" width="16" height="16" as="geometry" />
        </mxCell>
        <mxCell id="x1LBng_5WOXiY_3KLzgl-46" value="&lt;div style=&quot;font-size: 19px;&quot;&gt;&lt;/div&gt;" style="verticalAlign=middle;align=center;overflow=width;vsdxID=369;fillColor=none;gradientColor=none;strokeColor=none;spacingTop=-1;spacingBottom=-1;spacingLeft=-1;spacingRight=-1;points=[[0,0.75,0],[0,0.5,0],[0,0.25,0],[0.25,0,0],[0.5,0,0],[0.75,0,0],[1,0.25,0],[1,0.5,0],[1,0.75,0],[0.75,1,0],[0.5,1,0],[0.25,1,0]];labelBackgroundColor=none;rounded=0;html=1;whiteSpace=wrap;fontFamily=Calibri;fontSize=19;fontStyle=1;fontColor=#FFFFFF;" vertex="1" parent="x1LBng_5WOXiY_3KLzgl-43">
          <mxGeometry x="5" y="5" width="14" height="14" as="geometry" />
        </mxCell>
        <mxCell id="x1LBng_5WOXiY_3KLzgl-47" value="&lt;div style=&quot;font-size: 19px;&quot;&gt;&lt;font style=&quot;font-size: 19px; direction: ltr; letter-spacing: 0px; line-height: 120%; opacity: 1;&quot;&gt;&lt;span style=&quot;font-size: 19px;&quot;&gt;DIO&lt;br style=&quot;font-size: 19px;&quot;&gt;&lt;/span&gt;&lt;/font&gt;&lt;/div&gt;" style="text;vsdxID=356;fillColor=none;gradientColor=none;strokeColor=none;spacingTop=-1;spacingBottom=-1;spacingLeft=-1;spacingRight=-1;points=[[0,0.75,0],[0,0.5,0],[0,0.25,0],[0.25,0,0],[0.5,0,0],[0.75,0,0],[1,0.25,0],[1,0.5,0],[1,0.75,0],[0.75,1,0],[0.5,1,0],[0.25,1,0]];labelBackgroundColor=none;rounded=1;html=1;whiteSpace=wrap;verticalAlign=middle;align=center;overflow=width;;html=1;fontFamily=Calibri;fontSize=19;fontStyle=1;fontColor=#FFFFFF;" vertex="1" parent="x1LBng_5WOXiY_3KLzgl-43">
          <mxGeometry y="37.9" width="228.6" as="geometry" />
        </mxCell>
        <UserObject label="&lt;font style=&quot;font-size: 21px;&quot;&gt;LIB&lt;/font&gt;" tags="Background" id="x1LBng_5WOXiY_3KLzgl-48">
          <mxCell style="vsdxID=492;fillColor=none;gradientColor=none;strokeColor=none;points=[];labelBackgroundColor=none;rounded=0;html=1;whiteSpace=wrap;horizontal=0;fontFamily=Calibri;fontSize=19;fontColor=#ffffff;" vertex="1" parent="1">
            <mxGeometry x="-198" y="-924" width="73" height="104" as="geometry" />
          </mxCell>
        </UserObject>
        <UserObject label="" tags="Background" id="x1LBng_5WOXiY_3KLzgl-49">
          <mxCell style="vsdxID=542;fillColor=none;gradientColor=none;strokeColor=none;points=[];labelBackgroundColor=none;rounded=0;html=1;whiteSpace=wrap;" vertex="1" parent="1">
            <mxGeometry x="-143" y="-853" width="50" height="220" as="geometry" />
          </mxCell>
        </UserObject>
        <mxCell id="x1LBng_5WOXiY_3KLzgl-50" style="vsdxID=543;fillColor=none;gradientColor=none;strokeColor=none;spacingTop=-1;spacingBottom=-1;spacingLeft=-1;spacingRight=-1;points=[[0,0.75,0],[0,0.5,0],[0,0.25,0],[0.25,0,0],[0.5,0,0],[0.75,0,0],[1,0.25,0],[1,0.5,0],[1,0.75,0],[0.75,1,0],[0.5,1,0],[0.25,1,0]];labelBackgroundColor=none;rounded=1;html=1;whiteSpace=wrap;" vertex="1" parent="x1LBng_5WOXiY_3KLzgl-49">
          <mxGeometry width="50" height="220" as="geometry" />
        </mxCell>
        <mxCell id="x1LBng_5WOXiY_3KLzgl-51" style="vsdxID=544;fillColor=#ffffff;gradientColor=none;shape=stencil(nZCxDsIwDES/xitKk6V7KT/AF0TUEIuQVGmgwNeT9kCqOjB0s++efdKRaQZneyathpzilUfpsiOzJ60lOE6Sy0SmJdOcY+JLivfQYe9tIbWaFe5wU020VjadjvJmaPWu0jV0HN7iYwp8wlawXt8HCvsBqJewQH/mJvgPuhFcxZdhrgRlifdodOmvKywS6jftBw==);strokeColor=#a5a5a5;spacingTop=-1;spacingBottom=-1;spacingLeft=-1;spacingRight=-1;points=[[0,0.75,0],[0,0.5,0],[0,0.25,0],[0.25,0,0],[0.5,0,0],[0.75,0,0],[1,0.25,0],[1,0.5,0],[1,0.75,0],[0.75,1,0],[0.5,1,0],[0.25,1,0]];labelBackgroundColor=none;rounded=1;html=1;whiteSpace=wrap;" vertex="1" parent="x1LBng_5WOXiY_3KLzgl-50">
          <mxGeometry width="50" height="220" as="geometry" />
        </mxCell>
        <mxCell id="x1LBng_5WOXiY_3KLzgl-52" value="&lt;div style=&quot;font-size: 1px&quot;&gt;&lt;/div&gt;" style="verticalAlign=middle;align=center;overflow=width;vsdxID=548;fillColor=none;gradientColor=none;strokeColor=none;strokeWidth=2;spacingTop=-3;spacingBottom=-3;spacingLeft=-3;spacingRight=-3;points=[[0,0.75,0],[0,0.5,0],[0,0.25,0],[0.25,0,0],[0.5,0,0],[0.75,0,0],[1,0.25,0],[1,0.5,0],[1,0.75,0],[0.75,1,0],[0.5,1,0],[0.25,1,0]];labelBackgroundColor=none;rounded=0;html=1;whiteSpace=wrap;" vertex="1" parent="x1LBng_5WOXiY_3KLzgl-50">
          <mxGeometry x="26" y="200" width="16" height="16" as="geometry" />
        </mxCell>
        <mxCell id="x1LBng_5WOXiY_3KLzgl-53" value="&lt;div style=&quot;font-size: 1px&quot;&gt;&lt;/div&gt;" style="verticalAlign=middle;align=center;overflow=width;vsdxID=556;fillColor=none;gradientColor=none;strokeColor=none;spacingTop=-1;spacingBottom=-1;spacingLeft=-1;spacingRight=-1;points=[[0,0.75,0],[0,0.5,0],[0,0.25,0],[0.25,0,0],[0.5,0,0],[0.75,0,0],[1,0.25,0],[1,0.5,0],[1,0.75,0],[0.75,1,0],[0.5,1,0],[0.25,1,0]];labelBackgroundColor=none;rounded=0;html=1;whiteSpace=wrap;" vertex="1" parent="x1LBng_5WOXiY_3KLzgl-50">
          <mxGeometry x="5" y="5" width="14" height="14" as="geometry" />
        </mxCell>
        <mxCell id="x1LBng_5WOXiY_3KLzgl-54" value="&lt;div style=&quot;font-size: 1px&quot;&gt;&lt;/div&gt;" style="text;vsdxID=543;fillColor=none;gradientColor=none;strokeColor=none;spacingTop=-1;spacingBottom=-1;spacingLeft=-1;spacingRight=-1;points=[[0,0.75,0],[0,0.5,0],[0,0.25,0],[0.25,0,0],[0.5,0,0],[0.75,0,0],[1,0.25,0],[1,0.5,0],[1,0.75,0],[0.75,1,0],[0.5,1,0],[0.25,1,0]];labelBackgroundColor=none;rounded=1;html=1;whiteSpace=wrap;verticalAlign=top;align=center;overflow=width;rotation=270.05;;html=1;" vertex="1" parent="x1LBng_5WOXiY_3KLzgl-50">
          <mxGeometry x="-14.29" y="117.61" width="50.8" as="geometry" />
        </mxCell>
        <mxCell id="x1LBng_5WOXiY_3KLzgl-55" value="&lt;div style=&quot;font-size: 1px&quot;&gt;&lt;font style=&quot;font-size:16.93px;font-family:Calibri;color:#5b9bd5;direction:ltr;letter-spacing:0px;line-height:120%;opacity:1&quot;&gt;&lt;b&gt;STD Types&lt;br/&gt;&lt;/b&gt;&lt;/font&gt;&lt;/div&gt;" style="verticalAlign=middle;align=center;overflow=width;vsdxID=566;rotation=270;fillColor=none;gradientColor=none;shape=stencil(nZBLDoAgDERP0z3SIyjew0SURgSD+Lu9kMZoXLhwN9O+tukAlrNpJg1SzDH4QW/URgNYgZTkjA4UkwJUgGXng+6DX1zLfmoymdXo17xh5zmRJ6Q42BWCfc2oJfdAr+Yv+AP9Cb7OJ3H/2JG1HNGz/84klThPVCc=);strokeColor=none;points=[];labelBackgroundColor=none;rounded=0;html=1;whiteSpace=wrap;" vertex="1" parent="x1LBng_5WOXiY_3KLzgl-49">
          <mxGeometry x="-81" y="92" width="211" height="35" as="geometry" />
        </mxCell>
        <UserObject label="" BpmnName="LCD" tags="Flowchart" id="x1LBng_5WOXiY_3KLzgl-56">
          <mxCell style="vsdxID=591;fillColor=none;gradientColor=none;strokeColor=none;spacingTop=-1;spacingBottom=-1;spacingLeft=-1;spacingRight=-1;points=[[0,0.75,0],[0,0.5,0],[0,0.25,0],[0.25,0,0],[0.5,0,0],[0.75,0,0],[1,0.25,0],[1,0.5,0],[1,0.75,0],[0.75,1,0],[0.5,1,0],[0.25,1,0]];labelBackgroundColor=none;rounded=1;html=1;whiteSpace=wrap;fontFamily=Calibri;fontSize=19;fontStyle=1;fontColor=#FFFFFF;" vertex="1" parent="1">
            <mxGeometry x="106" y="-937" width="150" height="76" as="geometry" />
          </mxCell>
        </UserObject>
        <mxCell id="x1LBng_5WOXiY_3KLzgl-57" value="LCD" style="vsdxID=592;fillColor=#f0a30a;shape=stencil(nZCxDsIwDES/xitKk6V7KT/AF0TUEIuQVGmgwNeT9kCqOjB0s++efdKRaQZneyathpzilUfpsiOzJ60lOE6Sy0SmJdOcY+JLivfQYe9tIbWaFe5wU020VjadjvJmaPWu0jV0HN7iYwp8wlawXt8HCvsBqJewQH/mJvgPuhFcxZdhrgRlifdodOmvKywS6jftBw==);strokeColor=#BD7000;spacingTop=-1;spacingBottom=-1;spacingLeft=-1;spacingRight=-1;points=[[0,0.75,0],[0,0.5,0],[0,0.25,0],[0.25,0,0],[0.5,0,0],[0.75,0,0],[1,0.25,0],[1,0.5,0],[1,0.75,0],[0.75,1,0],[0.5,1,0],[0.25,1,0]];labelBackgroundColor=none;rounded=1;html=1;whiteSpace=wrap;fontColor=#FFFFFF;fontFamily=Calibri;fontSize=19;fontStyle=1" vertex="1" parent="x1LBng_5WOXiY_3KLzgl-56">
          <mxGeometry width="150" height="76" as="geometry" />
        </mxCell>
        <mxCell id="x1LBng_5WOXiY_3KLzgl-58" value="&lt;div style=&quot;font-size: 19px;&quot;&gt;&lt;/div&gt;" style="verticalAlign=middle;align=center;overflow=width;vsdxID=596;fillColor=none;gradientColor=none;strokeColor=none;strokeWidth=2;spacingTop=-3;spacingBottom=-3;spacingLeft=-3;spacingRight=-3;points=[[0,0.75,0],[0,0.5,0],[0,0.25,0],[0.25,0,0],[0.5,0,0],[0.75,0,0],[1,0.25,0],[1,0.5,0],[1,0.75,0],[0.75,1,0],[0.5,1,0],[0.25,1,0]];labelBackgroundColor=none;rounded=0;html=1;whiteSpace=wrap;fontFamily=Calibri;fontSize=19;fontStyle=1;fontColor=#FFFFFF;" vertex="1" parent="x1LBng_5WOXiY_3KLzgl-56">
          <mxGeometry x="76" y="56" width="16" height="16" as="geometry" />
        </mxCell>
        <mxCell id="x1LBng_5WOXiY_3KLzgl-59" value="&lt;div style=&quot;font-size: 19px;&quot;&gt;&lt;/div&gt;" style="verticalAlign=middle;align=center;overflow=width;vsdxID=604;fillColor=none;gradientColor=none;strokeColor=none;spacingTop=-1;spacingBottom=-1;spacingLeft=-1;spacingRight=-1;points=[[0,0.75,0],[0,0.5,0],[0,0.25,0],[0.25,0,0],[0.5,0,0],[0.75,0,0],[1,0.25,0],[1,0.5,0],[1,0.75,0],[0.75,1,0],[0.5,1,0],[0.25,1,0]];labelBackgroundColor=none;rounded=0;html=1;whiteSpace=wrap;fontFamily=Calibri;fontSize=19;fontStyle=1;fontColor=#FFFFFF;" vertex="1" parent="x1LBng_5WOXiY_3KLzgl-56">
          <mxGeometry x="5" y="5" width="14" height="14" as="geometry" />
        </mxCell>
        <mxCell id="x1LBng_5WOXiY_3KLzgl-60" value="&lt;div style=&quot;font-size: 19px;&quot;&gt;&lt;font style=&quot;font-size: 19px; direction: ltr; letter-spacing: 0px; line-height: 120%; opacity: 1;&quot;&gt;&lt;span style=&quot;font-size: 19px;&quot;&gt;LCD&lt;br style=&quot;font-size: 19px;&quot;&gt;&lt;/span&gt;&lt;/font&gt;&lt;/div&gt;" style="text;vsdxID=591;fillColor=none;gradientColor=none;strokeColor=none;spacingTop=-1;spacingBottom=-1;spacingLeft=-1;spacingRight=-1;points=[[0,0.75,0],[0,0.5,0],[0,0.25,0],[0.25,0,0],[0.5,0,0],[0.75,0,0],[1,0.25,0],[1,0.5,0],[1,0.75,0],[0.75,1,0],[0.5,1,0],[0.25,1,0]];labelBackgroundColor=none;rounded=1;html=1;whiteSpace=wrap;verticalAlign=middle;align=center;overflow=width;;html=1;fontFamily=Calibri;fontSize=19;fontStyle=1;fontColor=#FFFFFF;" vertex="1" parent="x1LBng_5WOXiY_3KLzgl-56">
          <mxGeometry y="37.9" width="150.81" as="geometry" />
        </mxCell>
        <UserObject label="" BpmnName="TEMPERATURE SENSOR" tags="Flowchart" id="x1LBng_5WOXiY_3KLzgl-61">
          <mxCell style="vsdxID=838;fillColor=none;gradientColor=none;strokeColor=none;spacingTop=-1;spacingBottom=-1;spacingLeft=-1;spacingRight=-1;points=[[0,0.75,0],[0,0.5,0],[0,0.25,0],[0.25,0,0],[0.5,0,0],[0.75,0,0],[1,0.25,0],[1,0.5,0],[1,0.75,0],[0.75,1,0],[0.5,1,0],[0.25,1,0]];labelBackgroundColor=none;rounded=1;html=1;whiteSpace=wrap;fontFamily=Calibri;fontSize=19;fontStyle=1;fontColor=#FFFFFF;" vertex="1" parent="1">
            <mxGeometry x="-41" y="-937" width="134" height="76" as="geometry" />
          </mxCell>
        </UserObject>
        <mxCell id="x1LBng_5WOXiY_3KLzgl-62" value="TEMPERATURE&lt;br style=&quot;font-size: 19px;&quot;&gt;SENSOR" style="vsdxID=839;fillColor=#f0a30a;shape=stencil(nZCxDsIwDES/xitKk6V7KT/AF0TUEIuQVGmgwNeT9kCqOjB0s++efdKRaQZneyathpzilUfpsiOzJ60lOE6Sy0SmJdOcY+JLivfQYe9tIbWaFe5wU020VjadjvJmaPWu0jV0HN7iYwp8wlawXt8HCvsBqJewQH/mJvgPuhFcxZdhrgRlifdodOmvKywS6jftBw==);strokeColor=#BD7000;spacingTop=-1;spacingBottom=-1;spacingLeft=-1;spacingRight=-1;points=[[0,0.75,0],[0,0.5,0],[0,0.25,0],[0.25,0,0],[0.5,0,0],[0.75,0,0],[1,0.25,0],[1,0.5,0],[1,0.75,0],[0.75,1,0],[0.5,1,0],[0.25,1,0]];labelBackgroundColor=none;rounded=1;html=1;whiteSpace=wrap;fontColor=#FFFFFF;fontFamily=Calibri;fontSize=19;fontStyle=1" vertex="1" parent="x1LBng_5WOXiY_3KLzgl-61">
          <mxGeometry width="134" height="76" as="geometry" />
        </mxCell>
        <mxCell id="x1LBng_5WOXiY_3KLzgl-63" value="&lt;div style=&quot;font-size: 19px;&quot;&gt;&lt;/div&gt;" style="verticalAlign=middle;align=center;overflow=width;vsdxID=843;fillColor=none;gradientColor=none;strokeColor=none;strokeWidth=2;spacingTop=-3;spacingBottom=-3;spacingLeft=-3;spacingRight=-3;points=[[0,0.75,0],[0,0.5,0],[0,0.25,0],[0.25,0,0],[0.5,0,0],[0.75,0,0],[1,0.25,0],[1,0.5,0],[1,0.75,0],[0.75,1,0],[0.5,1,0],[0.25,1,0]];labelBackgroundColor=none;rounded=0;html=1;whiteSpace=wrap;fontFamily=Calibri;fontSize=19;fontStyle=1;fontColor=#FFFFFF;" vertex="1" parent="x1LBng_5WOXiY_3KLzgl-61">
          <mxGeometry x="68" y="56" width="16" height="16" as="geometry" />
        </mxCell>
        <mxCell id="x1LBng_5WOXiY_3KLzgl-64" value="&lt;div style=&quot;font-size: 19px;&quot;&gt;&lt;/div&gt;" style="verticalAlign=middle;align=center;overflow=width;vsdxID=851;fillColor=none;gradientColor=none;strokeColor=none;spacingTop=-1;spacingBottom=-1;spacingLeft=-1;spacingRight=-1;points=[[0,0.75,0],[0,0.5,0],[0,0.25,0],[0.25,0,0],[0.5,0,0],[0.75,0,0],[1,0.25,0],[1,0.5,0],[1,0.75,0],[0.75,1,0],[0.5,1,0],[0.25,1,0]];labelBackgroundColor=none;rounded=0;html=1;whiteSpace=wrap;fontFamily=Calibri;fontSize=19;fontStyle=1;fontColor=#FFFFFF;" vertex="1" parent="x1LBng_5WOXiY_3KLzgl-61">
          <mxGeometry x="5" y="5" width="14" height="14" as="geometry" />
        </mxCell>
        <mxCell id="x1LBng_5WOXiY_3KLzgl-65" value="&lt;div style=&quot;font-size: 19px;&quot;&gt;&lt;font style=&quot;font-size: 19px; direction: ltr; letter-spacing: 0px; line-height: 120%; opacity: 1;&quot;&gt;&lt;span style=&quot;font-size: 19px;&quot;&gt;TEMPERATURE&lt;br style=&quot;font-size: 19px;&quot;&gt;SENSOR&lt;br style=&quot;font-size: 19px;&quot;&gt;&lt;/span&gt;&lt;/font&gt;&lt;/div&gt;" style="text;vsdxID=838;fillColor=none;gradientColor=none;strokeColor=none;spacingTop=-1;spacingBottom=-1;spacingLeft=-1;spacingRight=-1;points=[[0,0.75,0],[0,0.5,0],[0,0.25,0],[0.25,0,0],[0.5,0,0],[0.75,0,0],[1,0.25,0],[1,0.5,0],[1,0.75,0],[0.75,1,0],[0.5,1,0],[0.25,1,0]];labelBackgroundColor=none;rounded=1;html=1;whiteSpace=wrap;verticalAlign=middle;align=center;overflow=width;;html=1;fontFamily=Calibri;fontSize=19;fontStyle=1;fontColor=#FFFFFF;" vertex="1" parent="x1LBng_5WOXiY_3KLzgl-61">
          <mxGeometry y="37.9" width="134.94" as="geometry" />
        </mxCell>
        <UserObject label="" BpmnName="BUZZER" tags="Flowchart" id="x1LBng_5WOXiY_3KLzgl-66">
          <mxCell style="vsdxID=861;fillColor=none;gradientColor=none;strokeColor=none;spacingTop=-1;spacingBottom=-1;spacingLeft=-1;spacingRight=-1;points=[[0,0.75,0],[0,0.5,0],[0,0.25,0],[0.25,0,0],[0.5,0,0],[0.75,0,0],[1,0.25,0],[1,0.5,0],[1,0.75,0],[0.75,1,0],[0.5,1,0],[0.25,1,0]];labelBackgroundColor=none;rounded=1;html=1;whiteSpace=wrap;fontFamily=Calibri;fontSize=19;fontStyle=1;fontColor=#FFFFFF;" vertex="1" parent="1">
            <mxGeometry x="272" y="-937" width="92" height="76" as="geometry" />
          </mxCell>
        </UserObject>
        <mxCell id="x1LBng_5WOXiY_3KLzgl-67" value="KEYPAD" style="vsdxID=862;fillColor=#f0a30a;shape=stencil(nZCxDsIwDES/xitKk6V7KT/AF0TUEIuQVGmgwNeT9kCqOjB0s++efdKRaQZneyathpzilUfpsiOzJ60lOE6Sy0SmJdOcY+JLivfQYe9tIbWaFe5wU020VjadjvJmaPWu0jV0HN7iYwp8wlawXt8HCvsBqJewQH/mJvgPuhFcxZdhrgRlifdodOmvKywS6jftBw==);strokeColor=#BD7000;spacingTop=-1;spacingBottom=-1;spacingLeft=-1;spacingRight=-1;points=[[0,0.75,0],[0,0.5,0],[0,0.25,0],[0.25,0,0],[0.5,0,0],[0.75,0,0],[1,0.25,0],[1,0.5,0],[1,0.75,0],[0.75,1,0],[0.5,1,0],[0.25,1,0]];labelBackgroundColor=none;rounded=1;html=1;whiteSpace=wrap;fontColor=#FFFFFF;fontFamily=Calibri;fontSize=19;fontStyle=1" vertex="1" parent="x1LBng_5WOXiY_3KLzgl-66">
          <mxGeometry width="92" height="76" as="geometry" />
        </mxCell>
        <mxCell id="x1LBng_5WOXiY_3KLzgl-68" value="&lt;div style=&quot;font-size: 19px;&quot;&gt;&lt;/div&gt;" style="verticalAlign=middle;align=center;overflow=width;vsdxID=866;fillColor=none;gradientColor=none;strokeColor=none;strokeWidth=2;spacingTop=-3;spacingBottom=-3;spacingLeft=-3;spacingRight=-3;points=[[0,0.75,0],[0,0.5,0],[0,0.25,0],[0.25,0,0],[0.5,0,0],[0.75,0,0],[1,0.25,0],[1,0.5,0],[1,0.75,0],[0.75,1,0],[0.5,1,0],[0.25,1,0]];labelBackgroundColor=none;rounded=0;html=1;whiteSpace=wrap;fontFamily=Calibri;fontSize=19;fontStyle=1;fontColor=#FFFFFF;" vertex="1" parent="x1LBng_5WOXiY_3KLzgl-66">
          <mxGeometry x="47" y="56" width="16" height="16" as="geometry" />
        </mxCell>
        <mxCell id="x1LBng_5WOXiY_3KLzgl-69" value="&lt;div style=&quot;font-size: 19px;&quot;&gt;&lt;/div&gt;" style="verticalAlign=middle;align=center;overflow=width;vsdxID=874;fillColor=none;gradientColor=none;strokeColor=none;spacingTop=-1;spacingBottom=-1;spacingLeft=-1;spacingRight=-1;points=[[0,0.75,0],[0,0.5,0],[0,0.25,0],[0.25,0,0],[0.5,0,0],[0.75,0,0],[1,0.25,0],[1,0.5,0],[1,0.75,0],[0.75,1,0],[0.5,1,0],[0.25,1,0]];labelBackgroundColor=none;rounded=0;html=1;whiteSpace=wrap;fontFamily=Calibri;fontSize=19;fontStyle=1;fontColor=#FFFFFF;" vertex="1" parent="x1LBng_5WOXiY_3KLzgl-66">
          <mxGeometry x="5" y="5" width="14" height="14" as="geometry" />
        </mxCell>
        <mxCell id="x1LBng_5WOXiY_3KLzgl-70" value="&lt;div style=&quot;font-size: 19px;&quot;&gt;&lt;font style=&quot;font-size: 19px; direction: ltr; letter-spacing: 0px; line-height: 120%; opacity: 1;&quot;&gt;&lt;span style=&quot;font-size: 19px;&quot;&gt;`&lt;/span&gt;&lt;/font&gt;&lt;/div&gt;" style="text;vsdxID=861;fillColor=none;gradientColor=none;strokeColor=none;spacingTop=-1;spacingBottom=-1;spacingLeft=-1;spacingRight=-1;points=[[0,0.75,0],[0,0.5,0],[0,0.25,0],[0.25,0,0],[0.5,0,0],[0.75,0,0],[1,0.25,0],[1,0.5,0],[1,0.75,0],[0.75,1,0],[0.5,1,0],[0.25,1,0]];labelBackgroundColor=none;rounded=1;html=1;whiteSpace=wrap;verticalAlign=middle;align=center;overflow=width;;html=1;fontFamily=Calibri;fontSize=19;fontStyle=1;fontColor=#FFFFFF;" vertex="1" parent="x1LBng_5WOXiY_3KLzgl-66">
          <mxGeometry y="37.9" width="92.08" as="geometry" />
        </mxCell>
        <UserObject label="" BpmnName="ADC" tags="Flowchart" id="x1LBng_5WOXiY_3KLzgl-71">
          <mxCell style="vsdxID=884;fillColor=none;gradientColor=none;strokeColor=none;spacingTop=-1;spacingBottom=-1;spacingLeft=-1;spacingRight=-1;points=[[0,0.75,0],[0,0.5,0],[0,0.25,0],[0.25,0,0],[0.5,0,0],[0.75,0,0],[1,0.25,0],[1,0.5,0],[1,0.75,0],[0.75,1,0],[0.5,1,0],[0.25,1,0]];labelBackgroundColor=none;rounded=1;html=1;whiteSpace=wrap;fontFamily=Calibri;fontSize=19;fontStyle=1;fontColor=#FFFFFF;" vertex="1" parent="1">
            <mxGeometry x="-46" y="-770" width="134" height="76" as="geometry" />
          </mxCell>
        </UserObject>
        <mxCell id="x1LBng_5WOXiY_3KLzgl-72" value="ADC" style="vsdxID=885;fillColor=#1ba1e2;shape=stencil(nZCxDsIwDES/xitKk6V7KT/AF0TUEIuQVGmgwNeT9kCqOjB0s++efdKRaQZneyathpzilUfpsiOzJ60lOE6Sy0SmJdOcY+JLivfQYe9tIbWaFe5wU020VjadjvJmaPWu0jV0HN7iYwp8wlawXt8HCvsBqJewQH/mJvgPuhFcxZdhrgRlifdodOmvKywS6jftBw==);strokeColor=#006EAF;spacingTop=-1;spacingBottom=-1;spacingLeft=-1;spacingRight=-1;points=[[0,0.75,0],[0,0.5,0],[0,0.25,0],[0.25,0,0],[0.5,0,0],[0.75,0,0],[1,0.25,0],[1,0.5,0],[1,0.75,0],[0.75,1,0],[0.5,1,0],[0.25,1,0]];labelBackgroundColor=none;rounded=1;html=1;whiteSpace=wrap;fontColor=#FFFFFF;fontFamily=Calibri;fontSize=19;fontStyle=1" vertex="1" parent="x1LBng_5WOXiY_3KLzgl-71">
          <mxGeometry width="134" height="76" as="geometry" />
        </mxCell>
        <mxCell id="x1LBng_5WOXiY_3KLzgl-73" value="&lt;div style=&quot;font-size: 19px;&quot;&gt;&lt;/div&gt;" style="verticalAlign=middle;align=center;overflow=width;vsdxID=889;fillColor=none;gradientColor=none;strokeColor=none;strokeWidth=2;spacingTop=-3;spacingBottom=-3;spacingLeft=-3;spacingRight=-3;points=[[0,0.75,0],[0,0.5,0],[0,0.25,0],[0.25,0,0],[0.5,0,0],[0.75,0,0],[1,0.25,0],[1,0.5,0],[1,0.75,0],[0.75,1,0],[0.5,1,0],[0.25,1,0]];labelBackgroundColor=none;rounded=0;html=1;whiteSpace=wrap;fontFamily=Calibri;fontSize=19;fontStyle=1;fontColor=#FFFFFF;" vertex="1" parent="x1LBng_5WOXiY_3KLzgl-71">
          <mxGeometry x="68" y="56" width="16" height="16" as="geometry" />
        </mxCell>
        <mxCell id="x1LBng_5WOXiY_3KLzgl-74" value="&lt;div style=&quot;font-size: 19px;&quot;&gt;&lt;/div&gt;" style="verticalAlign=middle;align=center;overflow=width;vsdxID=897;fillColor=none;gradientColor=none;strokeColor=none;spacingTop=-1;spacingBottom=-1;spacingLeft=-1;spacingRight=-1;points=[[0,0.75,0],[0,0.5,0],[0,0.25,0],[0.25,0,0],[0.5,0,0],[0.75,0,0],[1,0.25,0],[1,0.5,0],[1,0.75,0],[0.75,1,0],[0.5,1,0],[0.25,1,0]];labelBackgroundColor=none;rounded=0;html=1;whiteSpace=wrap;fontFamily=Calibri;fontSize=19;fontStyle=1;fontColor=#FFFFFF;" vertex="1" parent="x1LBng_5WOXiY_3KLzgl-71">
          <mxGeometry x="5" y="5" width="14" height="14" as="geometry" />
        </mxCell>
        <mxCell id="x1LBng_5WOXiY_3KLzgl-75" value="&lt;div style=&quot;font-size: 19px;&quot;&gt;&lt;p style=&quot;text-align: center; margin: 0px; text-indent: 0px; vertical-align: middle; direction: ltr; font-size: 19px;&quot;&gt;&lt;font style=&quot;font-size: 19px; direction: ltr; letter-spacing: 0px; line-height: 120%; opacity: 1;&quot;&gt;&lt;span style=&quot;font-size: 19px;&quot;&gt;ADC&lt;br style=&quot;font-size: 19px;&quot;&gt;&lt;/span&gt;&lt;/font&gt;&lt;/p&gt;&lt;/div&gt;" style="text;vsdxID=884;fillColor=none;gradientColor=none;strokeColor=none;spacingTop=-1;spacingBottom=-1;spacingLeft=-1;spacingRight=-1;points=[[0,0.75,0],[0,0.5,0],[0,0.25,0],[0.25,0,0],[0.5,0,0],[0.75,0,0],[1,0.25,0],[1,0.5,0],[1,0.75,0],[0.75,1,0],[0.5,1,0],[0.25,1,0]];labelBackgroundColor=none;rounded=1;html=1;whiteSpace=wrap;verticalAlign=middle;align=center;overflow=width;;html=1;fontFamily=Calibri;fontSize=19;fontStyle=1;fontColor=#FFFFFF;" vertex="1" parent="x1LBng_5WOXiY_3KLzgl-71">
          <mxGeometry x="0.79" y="36.05" width="134.94" as="geometry" />
        </mxCell>
        <UserObject label="" BpmnName="TIMER" tags="Flowchart" id="x1LBng_5WOXiY_3KLzgl-76">
          <mxCell style="vsdxID=907;fillColor=none;gradientColor=none;strokeColor=none;spacingTop=-1;spacingBottom=-1;spacingLeft=-1;spacingRight=-1;points=[[0,0.75,0],[0,0.5,0],[0,0.25,0],[0.25,0,0],[0.5,0,0],[0.75,0,0],[1,0.25,0],[1,0.5,0],[1,0.75,0],[0.75,1,0],[0.5,1,0],[0.25,1,0]];labelBackgroundColor=none;rounded=1;html=1;whiteSpace=wrap;fontFamily=Calibri;fontSize=19;fontStyle=1;fontColor=#FFFFFF;" vertex="1" parent="1">
            <mxGeometry x="94" y="-770" width="117" height="76" as="geometry" />
          </mxCell>
        </UserObject>
        <mxCell id="x1LBng_5WOXiY_3KLzgl-77" value="TIMER" style="vsdxID=908;fillColor=#1ba1e2;shape=stencil(nZCxDsIwDES/xitKk6V7KT/AF0TUEIuQVGmgwNeT9kCqOjB0s++efdKRaQZneyathpzilUfpsiOzJ60lOE6Sy0SmJdOcY+JLivfQYe9tIbWaFe5wU020VjadjvJmaPWu0jV0HN7iYwp8wlawXt8HCvsBqJewQH/mJvgPuhFcxZdhrgRlifdodOmvKywS6jftBw==);strokeColor=#006EAF;spacingTop=-1;spacingBottom=-1;spacingLeft=-1;spacingRight=-1;points=[[0,0.75,0],[0,0.5,0],[0,0.25,0],[0.25,0,0],[0.5,0,0],[0.75,0,0],[1,0.25,0],[1,0.5,0],[1,0.75,0],[0.75,1,0],[0.5,1,0],[0.25,1,0]];labelBackgroundColor=none;rounded=1;html=1;whiteSpace=wrap;fontColor=#FFFFFF;fontFamily=Calibri;fontSize=19;fontStyle=1" vertex="1" parent="x1LBng_5WOXiY_3KLzgl-76">
          <mxGeometry width="117" height="76" as="geometry" />
        </mxCell>
        <mxCell id="x1LBng_5WOXiY_3KLzgl-78" value="&lt;div style=&quot;font-size: 19px;&quot;&gt;&lt;/div&gt;" style="verticalAlign=middle;align=center;overflow=width;vsdxID=912;fillColor=none;gradientColor=none;strokeColor=none;strokeWidth=2;spacingTop=-3;spacingBottom=-3;spacingLeft=-3;spacingRight=-3;points=[[0,0.75,0],[0,0.5,0],[0,0.25,0],[0.25,0,0],[0.5,0,0],[0.75,0,0],[1,0.25,0],[1,0.5,0],[1,0.75,0],[0.75,1,0],[0.5,1,0],[0.25,1,0]];labelBackgroundColor=none;rounded=0;html=1;whiteSpace=wrap;fontFamily=Calibri;fontSize=19;fontStyle=1;fontColor=#FFFFFF;" vertex="1" parent="x1LBng_5WOXiY_3KLzgl-76">
          <mxGeometry x="59" y="56" width="16" height="16" as="geometry" />
        </mxCell>
        <mxCell id="x1LBng_5WOXiY_3KLzgl-79" value="&lt;div style=&quot;font-size: 19px;&quot;&gt;&lt;/div&gt;" style="verticalAlign=middle;align=center;overflow=width;vsdxID=920;fillColor=none;gradientColor=none;strokeColor=none;spacingTop=-1;spacingBottom=-1;spacingLeft=-1;spacingRight=-1;points=[[0,0.75,0],[0,0.5,0],[0,0.25,0],[0.25,0,0],[0.5,0,0],[0.75,0,0],[1,0.25,0],[1,0.5,0],[1,0.75,0],[0.75,1,0],[0.5,1,0],[0.25,1,0]];labelBackgroundColor=none;rounded=0;html=1;whiteSpace=wrap;fontFamily=Calibri;fontSize=19;fontStyle=1;fontColor=#FFFFFF;" vertex="1" parent="x1LBng_5WOXiY_3KLzgl-76">
          <mxGeometry x="5" y="5" width="14" height="14" as="geometry" />
        </mxCell>
        <mxCell id="x1LBng_5WOXiY_3KLzgl-80" value="&lt;div style=&quot;font-size: 19px;&quot;&gt;&lt;p style=&quot;text-align: center; margin: 0px; text-indent: 0px; vertical-align: middle; direction: ltr; font-size: 19px;&quot;&gt;&lt;font style=&quot;font-size: 19px; direction: ltr; letter-spacing: 0px; line-height: 120%; opacity: 1;&quot;&gt;&lt;span style=&quot;font-size: 19px;&quot;&gt;TIMER&lt;br style=&quot;font-size: 19px;&quot;&gt;&lt;/span&gt;&lt;/font&gt;&lt;/p&gt;&lt;/div&gt;" style="text;vsdxID=907;fillColor=none;gradientColor=none;strokeColor=none;spacingTop=-1;spacingBottom=-1;spacingLeft=-1;spacingRight=-1;points=[[0,0.75,0],[0,0.5,0],[0,0.25,0],[0.25,0,0],[0.5,0,0],[0.75,0,0],[1,0.25,0],[1,0.5,0],[1,0.75,0],[0.75,1,0],[0.5,1,0],[0.25,1,0]];labelBackgroundColor=none;rounded=1;html=1;whiteSpace=wrap;verticalAlign=middle;align=center;overflow=width;;html=1;fontFamily=Calibri;fontSize=19;fontStyle=1;fontColor=#FFFFFF;" vertex="1" parent="x1LBng_5WOXiY_3KLzgl-76">
          <mxGeometry y="37.64" width="117.47" as="geometry" />
        </mxCell>
        <UserObject label="&lt;div style=&quot;font-size: 19px;&quot;&gt;&lt;/div&gt;" tags="Connector" id="x1LBng_5WOXiY_3KLzgl-81">
          <mxCell style="vsdxID=934;edgeStyle=none;startArrow=none;endArrow=block;startSize=3;endSize=3;strokeColor=#564e75;spacingTop=0;spacingBottom=0;spacingLeft=0;spacingRight=0;verticalAlign=middle;html=1;labelBackgroundColor=#ffffff;rounded=0;align=center;overflow=width;exitX=0.5;exitY=1;exitDx=0;exitDy=0;exitPerimeter=0;entryX=0.25;entryY=0;entryDx=0;entryDy=0;entryPerimeter=0;fontFamily=Calibri;fontSize=19;fontStyle=1;fontColor=#FFFFFF;" edge="1" parent="1" source="x1LBng_5WOXiY_3KLzgl-21" target="x1LBng_5WOXiY_3KLzgl-66">
            <mxGeometry relative="1" as="geometry">
              <mxPoint y="-2" as="offset" />
              <Array as="points">
                <mxPoint x="211" y="-972.2" />
                <mxPoint x="294.34000000000003" y="-972.2" />
              </Array>
            </mxGeometry>
          </mxCell>
        </UserObject>
        <UserObject label="&lt;div style=&quot;font-size: 19px;&quot;&gt;&lt;/div&gt;" tags="Connector" id="x1LBng_5WOXiY_3KLzgl-82">
          <mxCell style="vsdxID=933;edgeStyle=none;startArrow=none;endArrow=block;startSize=3;endSize=3;strokeColor=#564e75;spacingTop=0;spacingBottom=0;spacingLeft=0;spacingRight=0;verticalAlign=middle;html=1;labelBackgroundColor=#ffffff;rounded=0;align=center;overflow=width;exitX=0.14285714285714285;exitY=1;exitDx=0;exitDy=0;exitPerimeter=0;entryX=0.5;entryY=0;entryDx=0;entryDy=0;entryPerimeter=0;fontFamily=Calibri;fontSize=19;fontStyle=1;fontColor=#FFFFFF;" edge="1" parent="1" source="x1LBng_5WOXiY_3KLzgl-21" target="x1LBng_5WOXiY_3KLzgl-61">
            <mxGeometry relative="1" as="geometry">
              <mxPoint x="-4" y="1" as="offset" />
              <Array as="points">
                <mxPoint x="46" y="-972.2" />
                <mxPoint x="26.160000000000025" y="-972.2" />
              </Array>
            </mxGeometry>
          </mxCell>
        </UserObject>
        <UserObject label="&lt;div style=&quot;font-size: 19px;&quot;&gt;&lt;/div&gt;" tags="Connector" id="x1LBng_5WOXiY_3KLzgl-83">
          <mxCell style="vsdxID=932;edgeStyle=none;startArrow=none;endArrow=block;startSize=3;endSize=3;strokeColor=#564e75;spacingTop=0;spacingBottom=0;spacingLeft=0;spacingRight=0;verticalAlign=middle;html=1;labelBackgroundColor=#ffffff;rounded=0;align=center;overflow=width;exitX=0.5;exitY=1;exitDx=0;exitDy=0;exitPerimeter=0;entryX=0.5;entryY=0;entryDx=0;entryDy=0;entryPerimeter=0;fontFamily=Calibri;fontSize=19;fontStyle=1;fontColor=#FFFFFF;" edge="1" parent="1" source="x1LBng_5WOXiY_3KLzgl-61" target="x1LBng_5WOXiY_3KLzgl-71">
            <mxGeometry relative="1" as="geometry">
              <mxPoint x="-11" y="-1" as="offset" />
              <Array as="points">
                <mxPoint x="26" y="-810.2" />
                <mxPoint x="21.24000000000001" y="-810.2" />
              </Array>
            </mxGeometry>
          </mxCell>
        </UserObject>
        <UserObject label="&lt;div style=&quot;font-size: 19px;&quot;&gt;&lt;/div&gt;" tags="Connector" id="x1LBng_5WOXiY_3KLzgl-84">
          <mxCell style="vsdxID=931;edgeStyle=none;startArrow=none;endArrow=block;startSize=3;endSize=3;strokeColor=#564e75;spacingTop=0;spacingBottom=0;spacingLeft=0;spacingRight=0;verticalAlign=middle;html=1;labelBackgroundColor=#ffffff;rounded=0;align=center;overflow=width;exitX=0.25333333333333335;exitY=1;exitDx=0;exitDy=0;exitPerimeter=0;entryX=0.49572649572649574;entryY=0;entryDx=0;entryDy=0;entryPerimeter=0;fontFamily=Calibri;fontSize=19;fontStyle=1;fontColor=#FFFFFF;" edge="1" parent="1" source="x1LBng_5WOXiY_3KLzgl-56" target="x1LBng_5WOXiY_3KLzgl-76">
            <mxGeometry relative="1" as="geometry">
              <mxPoint x="8" y="-1" as="offset" />
              <Array as="points">
                <mxPoint x="144" y="-810.2" />
                <mxPoint x="152.32999999999998" y="-810.2" />
              </Array>
            </mxGeometry>
          </mxCell>
        </UserObject>
        <UserObject label="&lt;div style=&quot;font-size: 19px;&quot;&gt;&lt;/div&gt;" tags="Connector" id="x1LBng_5WOXiY_3KLzgl-85">
          <mxCell style="vsdxID=930;edgeStyle=none;startArrow=none;endArrow=block;startSize=3;endSize=3;strokeColor=#d79b00;spacingTop=0;spacingBottom=0;spacingLeft=0;spacingRight=0;verticalAlign=middle;html=1;labelBackgroundColor=#ffffff;rounded=0;align=center;overflow=width;exitX=0.5;exitY=1;exitDx=0;exitDy=0;exitPerimeter=0;entryX=0.5043859649122807;entryY=0;entryDx=0;entryDy=0;entryPerimeter=0;fontFamily=Calibri;fontSize=19;fontStyle=1;fontColor=#FFFFFF;fillColor=#ffe6cc;" edge="1" parent="1" source="x1LBng_5WOXiY_3KLzgl-66" target="x1LBng_5WOXiY_3KLzgl-43">
            <mxGeometry relative="1" as="geometry">
              <mxPoint x="-1" as="offset" />
              <Array as="points">
                <mxPoint x="318" y="-810.2" />
                <mxPoint x="344.99" y="-810.2" />
              </Array>
            </mxGeometry>
          </mxCell>
        </UserObject>
        <UserObject label="&lt;div style=&quot;font-size: 19px;&quot;&gt;&lt;/div&gt;" tags="Connector" id="x1LBng_5WOXiY_3KLzgl-86">
          <mxCell style="vsdxID=814;edgeStyle=none;startArrow=none;endArrow=block;startSize=3;endSize=3;strokeColor=#564e75;spacingTop=0;spacingBottom=0;spacingLeft=0;spacingRight=0;verticalAlign=middle;html=1;labelBackgroundColor=#ffffff;rounded=0;align=center;overflow=width;exitX=0.76;exitY=1;exitDx=0;exitDy=0;exitPerimeter=0;entryX=0.25;entryY=0;entryDx=0;entryDy=0;entryPerimeter=0;fontFamily=Calibri;fontSize=19;fontStyle=1;fontColor=#FFFFFF;" edge="1" parent="1" source="x1LBng_5WOXiY_3KLzgl-56" target="x1LBng_5WOXiY_3KLzgl-43">
            <mxGeometry relative="1" as="geometry">
              <mxPoint as="offset" />
              <Array as="points">
                <mxPoint x="220" y="-810.2" />
                <mxPoint x="287.87" y="-810.2" />
              </Array>
            </mxGeometry>
          </mxCell>
        </UserObject>
        <UserObject label="&lt;div style=&quot;font-size: 19px;&quot;&gt;&lt;/div&gt;" tags="Connector" id="x1LBng_5WOXiY_3KLzgl-87">
          <mxCell style="vsdxID=487;edgeStyle=none;startArrow=none;endArrow=block;startSize=3;endSize=3;strokeColor=#564e75;spacingTop=0;spacingBottom=0;spacingLeft=0;spacingRight=0;verticalAlign=middle;html=1;labelBackgroundColor=#ffffff;rounded=0;align=center;overflow=width;exitX=0.7510822510822511;exitY=1;exitDx=0;exitDy=0;exitPerimeter=0;entryX=0.5;entryY=0;entryDx=0;entryDy=0;entryPerimeter=0;fontFamily=Calibri;fontSize=19;fontStyle=1;fontColor=#FFFFFF;" edge="1" parent="1" source="x1LBng_5WOXiY_3KLzgl-21" target="x1LBng_5WOXiY_3KLzgl-38">
            <mxGeometry relative="1" as="geometry">
              <mxPoint as="offset" />
              <Array as="points">
                <mxPoint x="327" y="-972.2" />
                <mxPoint x="417.75" y="-972.2" />
              </Array>
            </mxGeometry>
          </mxCell>
        </UserObject>
        <UserObject label="&lt;div style=&quot;font-size: 19px;&quot;&gt;&lt;/div&gt;" tags="Connector" id="x1LBng_5WOXiY_3KLzgl-88">
          <mxCell style="vsdxID=773;edgeStyle=none;startArrow=none;endArrow=block;startSize=3;endSize=3;strokeColor=#564e75;spacingTop=0;spacingBottom=0;spacingLeft=0;spacingRight=0;verticalAlign=middle;html=1;labelBackgroundColor=#ffffff;rounded=0;align=center;overflow=width;exitX=0.2510822510822511;exitY=1;exitDx=0;exitDy=0;exitPerimeter=0;entryX=0.5066666666666667;entryY=0;entryDx=0;entryDy=0;entryPerimeter=0;fontFamily=Calibri;fontSize=19;fontStyle=1;fontColor=#FFFFFF;" edge="1" parent="1" source="x1LBng_5WOXiY_3KLzgl-21" target="x1LBng_5WOXiY_3KLzgl-56">
            <mxGeometry relative="1" as="geometry">
              <mxPoint y="-2" as="offset" />
              <Array as="points">
                <mxPoint x="96" y="-972.2" />
                <mxPoint x="182.26" y="-972.2" />
              </Array>
            </mxGeometry>
          </mxCell>
        </UserObject>
        <UserObject label="&lt;div style=&quot;font-size: 19px;&quot;&gt;&lt;/div&gt;" tags="Connector" id="x1LBng_5WOXiY_3KLzgl-89">
          <mxCell style="vsdxID=809;edgeStyle=none;startArrow=none;endArrow=block;startSize=3;endSize=3;strokeColor=#564e75;spacingTop=0;spacingBottom=0;spacingLeft=0;spacingRight=0;verticalAlign=middle;html=1;labelBackgroundColor=#ffffff;rounded=0;align=center;overflow=width;exitX=0.5;exitY=1;exitDx=0;exitDy=0;exitPerimeter=0;entryX=0.7543859649122807;entryY=0;entryDx=0;entryDy=0;entryPerimeter=0;fontFamily=Calibri;fontSize=19;fontStyle=1;fontColor=#FFFFFF;" edge="1" parent="1" source="x1LBng_5WOXiY_3KLzgl-38" target="x1LBng_5WOXiY_3KLzgl-43">
            <mxGeometry relative="1" as="geometry">
              <mxPoint x="-6" as="offset" />
              <Array as="points">
                <mxPoint x="418" y="-810.2" />
                <mxPoint x="402.13" y="-810.2" />
              </Array>
            </mxGeometry>
          </mxCell>
        </UserObject>
        <mxCell id="x1LBng_5WOXiY_3KLzgl-90" value="&lt;div style=&quot;font-size: 19px;&quot;&gt;&lt;/div&gt;" style="verticalAlign=middle;align=center;overflow=width;vsdxID=99;fillColor=none;gradientColor=none;strokeColor=none;strokeWidth=2;spacingTop=-3;spacingBottom=-3;spacingLeft=-3;spacingRight=-3;points=[[0,0.75,0],[0,0.5,0],[0,0.25,0],[0.25,0,0],[0.5,0,0],[0.75,0,0],[1,0.25,0],[1,0.5,0],[1,0.75,0],[0.75,1,0],[0.5,1,0],[0.25,1,0]];labelBackgroundColor=none;rounded=0;html=1;whiteSpace=wrap;fontFamily=Calibri;fontSize=19;fontStyle=1;fontColor=#FFFFFF;" vertex="1" parent="1">
          <mxGeometry x="212" y="-621" width="16" height="16" as="geometry" />
        </mxCell>
        <mxCell id="x1LBng_5WOXiY_3KLzgl-91" value="&lt;div style=&quot;font-size: 19px;&quot;&gt;&lt;/div&gt;" style="verticalAlign=middle;align=center;overflow=width;vsdxID=107;fillColor=none;gradientColor=none;strokeColor=none;spacingTop=-1;spacingBottom=-1;spacingLeft=-1;spacingRight=-1;points=[[0,0.75,0],[0,0.5,0],[0,0.25,0],[0.25,0,0],[0.5,0,0],[0.75,0,0],[1,0.25,0],[1,0.5,0],[1,0.75,0],[0.75,1,0],[0.5,1,0],[0.25,1,0]];labelBackgroundColor=none;rounded=0;html=1;whiteSpace=wrap;fontFamily=Calibri;fontSize=19;fontStyle=1;fontColor=#FFFFFF;" vertex="1" parent="1">
          <mxGeometry x="-60" y="-640" width="14" height="14" as="geometry" />
        </mxCell>
        <mxCell id="x1LBng_5WOXiY_3KLzgl-92" value="&lt;div style=&quot;font-size: 19px;&quot;&gt;&lt;font style=&quot;font-size: 19px; direction: ltr; letter-spacing: 0px; line-height: 120%; opacity: 1;&quot;&gt;Microcontroller&lt;br style=&quot;font-size: 19px;&quot;&gt;&lt;/font&gt;&lt;/div&gt;" style="text;vsdxID=94;fillColor=none;gradientColor=none;strokeColor=none;spacingTop=-1;spacingBottom=-1;spacingLeft=-1;spacingRight=-1;points=[[0,0.75,0],[0,0.5,0],[0,0.25,0],[0.25,0,0],[0.5,0,0],[0.75,0,0],[1,0.25,0],[1,0.5,0],[1,0.75,0],[0.75,1,0],[0.5,1,0],[0.25,1,0]];labelBackgroundColor=none;rounded=1;html=1;whiteSpace=wrap;verticalAlign=middle;align=center;overflow=width;;html=1;fontFamily=Calibri;fontSize=19;fontStyle=1;fontColor=#FFFFFF;" vertex="1" parent="1">
          <mxGeometry x="-65" y="-623.22" width="552.45" as="geometry" />
        </mxCell>
        <UserObject label="&lt;div style=&quot;font-size: 19px;&quot;&gt;&lt;/div&gt;" tags="Connector" id="x1LBng_5WOXiY_3KLzgl-93">
          <mxCell style="vsdxID=930;edgeStyle=none;startArrow=none;endArrow=block;startSize=3;endSize=3;strokeColor=#d79b00;spacingTop=0;spacingBottom=0;spacingLeft=0;spacingRight=0;verticalAlign=middle;html=1;labelBackgroundColor=#ffffff;rounded=0;align=center;overflow=width;exitX=0.25;exitY=1;exitDx=0;exitDy=0;exitPerimeter=0;entryX=0.75;entryY=0;entryDx=0;entryDy=0;entryPerimeter=0;fontFamily=Calibri;fontSize=19;fontStyle=1;fontColor=#FFFFFF;fillColor=#ffe6cc;" edge="1" parent="1" source="x1LBng_5WOXiY_3KLzgl-66" target="x1LBng_5WOXiY_3KLzgl-77">
            <mxGeometry relative="1" as="geometry">
              <mxPoint x="-1" as="offset" />
              <Array as="points">
                <mxPoint x="295" y="-801" />
                <mxPoint x="182" y="-801" />
              </Array>
              <mxPoint x="328" y="-851" as="sourcePoint" />
              <mxPoint x="355" y="-760" as="targetPoint" />
            </mxGeometry>
          </mxCell>
        </UserObject>
      </root>
    </mxGraphModel>
  </diagram>
</mxfile>
